

<!-- Uploaded to: SVG Repo, www.svgrepo.com, Transformed by: SVG Repo Mixer Tools -->
<svg fill="#ff0000" height="256px" width="256px" version="1.1" id="Capa_1" xmlns="http://www.w3.org/2000/svg" xmlns:xlink="http://www.w3.org/1999/xlink" viewBox="-16.62 -16.62 448.71 448.71" xml:space="preserve" stroke="#ff0000" >

<g id="SVGRepo_bgCarrier" stroke-width="0"/>

<g id="SVGRepo_tracerCarrier" stroke-linecap="round" stroke-linejoin="round" stroke="#030303" stroke-width="11.633244000000001"> <g> <path d="M378.612,53.796c-23.77-23.77-55.373-36.86-88.988-36.86c-30.382,0-59.121,10.693-81.917,30.3 c-22.796-19.606-51.535-30.3-81.917-30.3c-33.616,0-65.219,13.09-88.988,36.86c-49.068,49.068-49.068,128.909,0,177.977 l163.834,163.834c1.953,1.953,4.512,2.929,7.071,2.929c2.559,0,5.119-0.976,7.071-2.929l163.835-163.834 c23.77-23.77,36.86-55.373,36.86-88.988C415.473,109.169,402.382,77.566,378.612,53.796z M364.47,217.631L207.707,374.394 L50.943,217.631c-19.992-19.992-31.002-46.573-31.002-74.846c0-28.273,11.01-54.854,31.003-74.847 c19.992-19.992,46.572-31.002,74.846-31.002c28.273,0,54.854,11.01,74.846,31.002c1.875,1.875,4.419,2.929,7.072,2.929 c2.652,0,5.196-1.054,7.071-2.929c19.992-19.992,46.573-31.002,74.846-31.002c28.273,0,54.854,11.01,74.846,31.002 C405.741,109.209,405.741,176.361,364.47,217.631z"/> <path d="M326.966,127.583c0-13.226-5.149-25.666-14.507-35.037c-19.32-19.307-50.747-19.306-70.056,0.002l-8.397,8.396 l-8.395-8.395c-9.356-9.356-21.796-14.509-35.028-14.509s-25.672,5.153-35.028,14.509c-9.356,9.356-14.51,21.796-14.51,35.028 s5.153,25.672,14.509,35.028l8.395,8.395l-8.398,8.398c-9.353,9.354-14.504,21.792-14.504,35.023s5.151,25.67,14.504,35.023 c9.359,9.359,21.801,14.513,35.034,14.513c13.234,0,25.673-5.155,35.025-14.513l8.392-8.393l8.397,8.397 c9.658,9.657,22.343,14.486,35.028,14.486s25.371-4.829,35.028-14.486c9.356-9.356,14.509-21.796,14.509-35.028 s-5.153-25.672-14.509-35.028l-8.392-8.392l8.397-8.397C321.814,153.253,326.966,140.814,326.966,127.583z M211.465,235.307 c-5.576,5.58-12.991,8.653-20.88,8.653c-7.891,0-15.31-3.074-20.891-8.656c-5.576-5.576-8.647-12.991-8.647-20.881 s3.071-15.305,8.647-20.881l8.398-8.398l41.768,41.768L211.465,235.307z M298.313,235.309 c-10.149,10.149-25.905,11.349-37.387,3.609c2.541-3.878,2.11-9.135-1.299-12.543c-3.543-3.544-9.079-3.86-12.993-0.973 l-67.03-67.03c2.887-3.914,2.571-9.45-0.972-12.993c-3.41-3.411-8.671-3.841-12.551-1.295c-3.273-4.837-5.036-10.535-5.036-16.505 c0-7.89,3.073-15.307,8.651-20.886l0,0c5.579-5.579,12.996-8.651,20.886-8.651c5.97,0,11.668,1.762,16.505,5.036 c-2.547,3.88-2.116,9.141,1.295,12.551c1.953,1.953,4.512,2.929,7.071,2.929c2.085,0,4.165-0.66,5.922-1.956l67.03,67.029 c-2.887,3.914-2.571,9.45,0.973,12.994c1.953,1.953,4.512,2.929,7.071,2.929c1.911,0,3.821-0.545,5.48-1.634 c3.273,4.837,5.036,10.535,5.036,16.505C306.965,222.313,303.893,229.73,298.313,235.309z M298.319,148.464l-8.397,8.397 l-41.773-41.773l8.397-8.396c11.513-11.513,30.254-11.511,41.769-0.005c5.579,5.587,8.652,13.009,8.652,20.897 C306.966,135.472,303.895,142.888,298.319,148.464z"/> <path d="M189.922,119.944l-6.974,6.974c-3.905,3.905-3.905,10.237,0,14.143c1.953,1.953,4.512,2.929,7.071,2.929 s5.119-0.976,7.071-2.929l6.974-6.974c3.905-3.905,3.905-10.237,0-14.143C200.16,116.039,193.828,116.039,189.922,119.944z"/> <path d="M270.918,200.94l-6.974,6.974c-3.905,3.905-3.905,10.237,0,14.143c1.953,1.953,4.512,2.929,7.071,2.929 s5.119-0.976,7.071-2.929l6.974-6.974c3.905-3.905,3.905-10.237,0-14.143C281.156,197.035,274.824,197.035,270.918,200.94z"/> </g> </g>

<g id="SVGRepo_iconCarrier"> <g> <path d="M378.612,53.796c-23.77-23.77-55.373-36.86-88.988-36.86c-30.382,0-59.121,10.693-81.917,30.3 c-22.796-19.606-51.535-30.3-81.917-30.3c-33.616,0-65.219,13.09-88.988,36.86c-49.068,49.068-49.068,128.909,0,177.977 l163.834,163.834c1.953,1.953,4.512,2.929,7.071,2.929c2.559,0,5.119-0.976,7.071-2.929l163.835-163.834 c23.77-23.77,36.86-55.373,36.86-88.988C415.473,109.169,402.382,77.566,378.612,53.796z M364.47,217.631L207.707,374.394 L50.943,217.631c-19.992-19.992-31.002-46.573-31.002-74.846c0-28.273,11.01-54.854,31.003-74.847 c19.992-19.992,46.572-31.002,74.846-31.002c28.273,0,54.854,11.01,74.846,31.002c1.875,1.875,4.419,2.929,7.072,2.929 c2.652,0,5.196-1.054,7.071-2.929c19.992-19.992,46.573-31.002,74.846-31.002c28.273,0,54.854,11.01,74.846,31.002 C405.741,109.209,405.741,176.361,364.47,217.631z"/> <path d="M326.966,127.583c0-13.226-5.149-25.666-14.507-35.037c-19.32-19.307-50.747-19.306-70.056,0.002l-8.397,8.396 l-8.395-8.395c-9.356-9.356-21.796-14.509-35.028-14.509s-25.672,5.153-35.028,14.509c-9.356,9.356-14.51,21.796-14.51,35.028 s5.153,25.672,14.509,35.028l8.395,8.395l-8.398,8.398c-9.353,9.354-14.504,21.792-14.504,35.023s5.151,25.67,14.504,35.023 c9.359,9.359,21.801,14.513,35.034,14.513c13.234,0,25.673-5.155,35.025-14.513l8.392-8.393l8.397,8.397 c9.658,9.657,22.343,14.486,35.028,14.486s25.371-4.829,35.028-14.486c9.356-9.356,14.509-21.796,14.509-35.028 s-5.153-25.672-14.509-35.028l-8.392-8.392l8.397-8.397C321.814,153.253,326.966,140.814,326.966,127.583z M211.465,235.307 c-5.576,5.58-12.991,8.653-20.88,8.653c-7.891,0-15.31-3.074-20.891-8.656c-5.576-5.576-8.647-12.991-8.647-20.881 s3.071-15.305,8.647-20.881l8.398-8.398l41.768,41.768L211.465,235.307z M298.313,235.309 c-10.149,10.149-25.905,11.349-37.387,3.609c2.541-3.878,2.11-9.135-1.299-12.543c-3.543-3.544-9.079-3.86-12.993-0.973 l-67.03-67.03c2.887-3.914,2.571-9.45-0.972-12.993c-3.41-3.411-8.671-3.841-12.551-1.295c-3.273-4.837-5.036-10.535-5.036-16.505 c0-7.89,3.073-15.307,8.651-20.886l0,0c5.579-5.579,12.996-8.651,20.886-8.651c5.97,0,11.668,1.762,16.505,5.036 c-2.547,3.88-2.116,9.141,1.295,12.551c1.953,1.953,4.512,2.929,7.071,2.929c2.085,0,4.165-0.66,5.922-1.956l67.03,67.029 c-2.887,3.914-2.571,9.45,0.973,12.994c1.953,1.953,4.512,2.929,7.071,2.929c1.911,0,3.821-0.545,5.48-1.634 c3.273,4.837,5.036,10.535,5.036,16.505C306.965,222.313,303.893,229.73,298.313,235.309z M298.319,148.464l-8.397,8.397 l-41.773-41.773l8.397-8.396c11.513-11.513,30.254-11.511,41.769-0.005c5.579,5.587,8.652,13.009,8.652,20.897 C306.966,135.472,303.895,142.888,298.319,148.464z"/> <path d="M189.922,119.944l-6.974,6.974c-3.905,3.905-3.905,10.237,0,14.143c1.953,1.953,4.512,2.929,7.071,2.929 s5.119-0.976,7.071-2.929l6.974-6.974c3.905-3.905,3.905-10.237,0-14.143C200.16,116.039,193.828,116.039,189.922,119.944z"/> <path d="M270.918,200.94l-6.974,6.974c-3.905,3.905-3.905,10.237,0,14.143c1.953,1.953,4.512,2.929,7.071,2.929 s5.119-0.976,7.071-2.929l6.974-6.974c3.905-3.905,3.905-10.237,0-14.143C281.156,197.035,274.824,197.035,270.918,200.94z"/> </g> </g>

</svg>